PathFileType  4	(X/Y/Z) C:\Users\antoi\Documents\MyRepositories\mobilecap\ResultsAnalysis
DataRate	CameraRate	NumFrames	NumMarkers	Units	OrigDataRate	OrigDataStartFrame	OrigNumFrames
100.0	100.0	4	51	mm	100.0	1603	1831
Frame#	Time	r_knee			r_shank_antsup			r_ankle			r_calc			r_5meta			r_toe			L_knee			L_shank_antsup			L_ankle			L_calc			L_5meta			L_toe			r_sh2			r_sh3			r_sh4			L_sh2			L_sh3			r_thigh1			r_thigh2			r_thigh3			r_thigh4			r_thigh5			L_thigh1			L_thigh2			L_thigh3			L_thigh4			r.ASIS			r.PSIS			L.ASIS			L.PSIS			C7			R_Shoulder			L_Shoulder			R_Sternum			L_Sternum			R_humerus			R_elbow_med			R_elbow_lat			R_forearm			R_wrist_radius			R_wrist_ulna			L_humerus			L_elbow_med			L_elbow_lat			L_forearm			L_wrist_radius			L_wrist_ulna			R_HJC			L_HJC			R_HJC_reg			L_HJC_reg			
		X1	Y1	Z1	X2	Y2	Z2	X3	Y3	Z3	X4	Y4	Z4	X5	Y5	Z5	X6	Y6	Z6	X7	Y7	Z7	X8	Y8	Z8	X9	Y9	Z9	X10	Y10	Z10	X11	Y11	Z11	X12	Y12	Z12	X13	Y13	Z13	X14	Y14	Z14	X15	Y15	Z15	X16	Y16	Z16	X17	Y17	Z17	X18	Y18	Z18	X19	Y19	Z19	X20	Y20	Z20	X21	Y21	Z21	X22	Y22	Z22	X23	Y23	Z23	X24	Y24	Z24	X25	Y25	Z25	X26	Y26	Z26	X27	Y27	Z27	X28	Y28	Z28	X29	Y29	Z29	X30	Y30	Z30	X31	Y31	Z31	X32	Y32	Z32	X33	Y33	Z33	X34	Y34	Z34	X35	Y35	Z35	X36	Y36	Z36	X37	Y37	Z37	X38	Y38	Z38	X39	Y39	Z39	X40	Y40	Z40	X41	Y41	Z41	X42	Y42	Z42	X43	Y43	Z43	X44	Y44	Z44	X45	Y45	Z45	X46	Y46	Z46	X47	Y47	Z47	X48	Y48	Z48	X49	Y49	Z49	X50	Y50	Z50	X51	Y51	Z51	

1603	16.02000000	-328.34178	526.21147	-410.87627	-248.34935	452.66211	-415.98446	-287.00346	121.80258	-427.22393	-364.42007	73.07678	-478.79306	-175.21004	49.79904	-377.29220	-114.34243	82.75454	-434.92625	-329.03953	529.13426	-827.67516	-297.54299	458.46726	-853.67396	-289.30786	126.10548	-823.18426	-364.09800	74.33900	-765.64384	-178.33930	51.29563	-863.92728	-116.14840	81.41785	-805.93109	-252.30759	341.70773	-391.10148	-313.16680	461.76880	-377.62636	-331.56005	348.13390	-370.54243	-386.93330	448.65791	-840.46295	-361.28785	329.16828	-844.82679	-640.44666	584.44760	-436.99584	-533.97913	598.35388	-432.56796	-505.92020	552.11996	-389.81517	-626.25610	473.77342	-419.07540	-513.37324	496.55524	-402.34949	-606.91075	600.16200	-802.66718	-466.93520	616.64583	-803.00901	-595.40583	501.40979	-848.15013	-459.22236	513.35506	-852.44311	-725.21518	637.56494	-499.43579	-889.63530	557.77067	-566.60448	-724.50277	630.28871	-741.40884	-893.54204	556.51185	-675.66220	-829.83677	1128.13446	-614.86113	-762.11767	1064.84310	-442.72612	-771.35163	1066.13651	-788.23702	-706.22951	1043.20937	-585.29999	-705.67405	1038.71485	-642.22509	-793.44412	902.65232	-383.09142	-900.58592	722.71646	-451.60423	-897.85703	741.10293	-362.47402	-731.46870	726.18394	-368.90126	-642.18492	754.08137	-385.48138	-650.68902	708.64479	-376.45438	-818.21906	940.89610	-862.03319	-900.49908	723.12306	-775.04163	-892.09845	731.93261	-861.70976	-814.60734	729.35540	-873.46730	-646.10160	737.84924	-844.46351	-649.63096	697.21752	-853.96045	-738.62372	496.02336	-513.86093	-744.43727	494.67663	-720.73565	-733.57987	536.21623	-531.73285	-739.29942	534.37333	-691.39490	
1604	16.03000000	-328.21336	526.15064	-410.54746	-248.27807	452.54676	-415.63833	-286.94096	121.81435	-427.13123	-364.35893	73.11492	-478.82125	-175.19094	49.77430	-377.26235	-114.34373	82.67659	-434.91849	-328.79921	529.29040	-828.20874	-297.43713	458.40870	-853.87325	-289.29879	126.04786	-823.21597	-364.08690	74.31510	-765.77036	-178.39045	51.25856	-863.95709	-116.13061	81.43531	-806.00398	-252.31870	341.67223	-390.84456	-313.13025	461.89873	-377.12241	-331.70510	348.17476	-370.24892	-386.84548	448.59198	-840.43028	-361.22005	329.14838	-844.85797	-640.15983	584.79683	-436.48666	-533.85103	598.26632	-432.46023	-505.86975	552.10474	-389.69881	-626.18622	473.74569	-419.04947	-513.22323	496.54462	-402.11443	-606.91252	600.15775	-802.71054	-466.77772	616.57198	-803.10282	-595.17868	501.37061	-848.34381	-459.07877	513.30016	-852.54252	-725.32323	637.54028	-499.40353	-889.60449	557.24939	-566.77536	-724.65067	630.29894	-741.57878	-893.55682	556.03954	-675.84931	-831.83165	1127.74962	-614.96709	-764.14192	1064.69645	-442.69314	-773.07577	1065.96365	-788.26199	-708.04914	1043.21686	-585.30553	-707.42485	1038.71120	-642.28641	-795.04598	902.33904	-383.45736	-901.95331	721.41416	-452.15599	-899.47243	740.77342	-363.25119	-733.06844	725.50385	-369.34517	-643.73096	753.34944	-385.64282	-652.69924	707.68164	-376.03296	-819.71807	940.75724	-862.11835	-902.20545	723.19680	-775.48776	-893.48723	731.70409	-862.07819	-816.01306	728.99588	-873.53795	-647.56512	737.40174	-844.36747	-651.12802	696.67294	-853.66623	-738.41816	495.92166	-514.01812	-744.21785	494.63581	-720.89360	-733.36011	536.07125	-531.78576	-739.15014	534.29881	-691.57886	
1605	16.04000000	-328.06761	525.97935	-410.35257	-248.13467	452.44710	-415.28216	-286.87250	121.74781	-427.02237	-364.40191	73.06482	-478.78309	-175.19694	49.74218	-377.24182	-114.33908	82.59613	-434.96517	-328.57769	529.34571	-828.59159	-297.30229	458.33769	-854.16108	-289.27519	125.97124	-823.24293	-364.03932	74.32259	-765.79910	-178.42724	51.23678	-864.01672	-116.12475	81.44192	-806.02343	-252.24566	341.63306	-390.50801	-312.91888	461.67385	-376.76186	-331.58150	348.28585	-369.70209	-386.75833	448.52867	-840.40797	-361.12631	329.14128	-844.92176	-639.97807	584.81570	-436.15189	-533.71647	598.18997	-432.37605	-505.82193	552.00693	-389.53346	-626.04898	473.68612	-418.93847	-513.08582	496.42518	-401.89522	-606.82175	600.10792	-802.81381	-466.59671	616.54109	-803.36901	-594.99560	501.28807	-848.49726	-458.91502	513.26220	-852.65563	-725.45730	637.42817	-499.42174	-889.58235	556.72935	-566.98103	-724.77835	630.27172	-741.62005	-893.56457	555.56773	-675.97695	-833.69261	1127.40024	-615.10758	-765.98092	1064.47912	-443.03098	-774.64362	1065.73939	-788.28643	-709.72594	1043.22416	-585.28994	-709.00803	1038.68399	-642.22440	-796.48209	901.94247	-383.80409	-902.91696	719.03645	-452.15829	-900.66386	740.37346	-363.69921	-734.25008	724.97739	-369.57158	-644.86724	752.80055	-385.77219	-654.55904	706.60154	-374.95664	-820.99810	940.52939	-862.24102	-903.57693	722.77061	-776.17797	-894.49476	731.42097	-862.61126	-817.06055	728.73852	-873.92403	-648.69083	737.09790	-844.34630	-652.19874	696.31862	-853.53605	-738.26211	495.75385	-514.15213	-744.01657	494.55834	-721.02942	-733.21479	535.92169	-531.85767	-739.05336	534.21867	-691.66323	
1606	16.05000000	-327.88673	525.87431	-410.03176	-247.96072	452.36158	-414.89462	-286.82940	121.65655	-426.96250	-364.40200	73.03407	-478.76410	-175.22024	49.69483	-377.23177	-114.31463	82.51177	-435.02491	-328.39909	529.28214	-828.88422	-297.14384	458.28030	-854.50612	-289.25672	125.90840	-823.26450	-364.02215	74.33488	-765.75927	-178.42650	51.20509	-864.06420	-116.12408	81.43590	-806.02807	-252.20646	341.59620	-390.08374	-312.66184	461.45393	-376.53574	-331.22907	348.33335	-369.08880	-386.62123	448.55887	-840.66179	-361.05768	329.10557	-844.95547	-639.94452	584.54905	-436.14225	-533.56745	598.07171	-432.21399	-505.79150	551.87515	-389.34839	-625.87375	473.64698	-418.64895	-512.95545	496.20044	-401.71283	-606.57161	600.00789	-802.95398	-466.40669	616.53444	-803.80878	-594.82854	501.17563	-848.59580	-458.71483	513.25093	-852.91747	-725.57698	637.29291	-499.54238	-889.56383	556.25143	-567.20136	-724.85204	630.23348	-741.63981	-893.63122	555.10473	-675.93889	-835.40584	1127.07431	-615.24253	-767.51706	1064.23023	-443.44023	-776.09217	1065.55705	-788.41348	-711.25410	1043.20528	-585.45514	-710.51853	1038.62511	-642.30928	-797.70776	901.55797	-384.03653	-903.51081	717.65011	-452.27740	-901.42011	739.79576	-363.98933	-735.03283	724.57847	-369.68053	-645.62390	752.46734	-385.79054	-655.69458	705.79615	-374.43414	-822.00593	940.27140	-862.46374	-904.61781	722.58803	-776.97835	-895.19203	731.15515	-863.30500	-817.73715	728.48260	-874.42644	-649.46340	736.93278	-844.37440	-652.93388	696.09944	-853.45983	-738.11641	495.58330	-514.26799	-743.87271	494.44610	-721.14556	-733.04924	535.81702	-531.97292	-739.02437	534.13255	-691.70505	
